<svg width="500" height="500" viewBox="0 0 500 500" fill="none" xmlns="http://www.w3.org/2000/svg">
<path d="M249.5 473V397.06C241.867 397.06 234.069 396.396 226.437 395.232L214.49 470.175C226.105 472.169 237.885 473 249.5 473ZM284.344 470.341C295.959 468.513 307.408 465.855 318.524 462.199L295.129 389.915C287.828 392.241 280.196 394.069 272.563 395.232L284.344 470.341ZM180.475 462.199L203.871 390.081C196.57 387.755 189.435 384.764 182.467 381.274L147.954 448.905C158.408 454.057 169.359 458.543 180.475 462.199ZM350.88 448.905C361.333 443.588 371.288 437.44 380.746 430.627L335.947 369.31C329.807 373.797 323.17 377.951 316.202 381.274L350.88 448.905ZM118.088 430.461L162.888 369.144C156.748 364.657 150.775 359.672 145.3 354.189L91.5401 407.861C99.8363 416.004 108.796 423.648 118.088 430.461ZM407.128 408.194L407.626 407.695C415.922 399.553 423.555 390.58 430.357 381.274L368.965 336.575C364.485 342.723 359.342 348.705 354.032 354.022L353.203 354.853L379.087 379.28L407.128 408.194ZM68.8085 381.108L130.2 336.408C125.72 330.26 121.572 323.613 118.088 316.8L50.3909 351.197C55.7004 361.666 61.8396 371.636 68.8085 381.108ZM448.609 351.364C453.919 341.061 458.399 330.094 462.049 318.96L389.706 295.697C387.383 303.008 384.396 310.153 380.912 316.966L448.609 351.364ZM36.951 318.96L109.294 295.531C106.971 288.219 105.146 280.741 103.984 273.098L28.8207 284.896C30.6459 296.361 33.4666 307.827 36.951 318.96ZM470.179 285.062C472.004 273.596 473 261.798 473 250.166H397.007C397.007 257.81 396.343 265.62 395.181 273.264L470.179 285.062ZM102.159 250C102.159 242.356 102.823 234.546 103.984 226.902L28.8207 215.104C26.9955 226.57 26.1659 238.368 26 250H102.159ZM395.181 227.069L470.345 215.27C468.52 203.805 465.865 192.339 462.215 181.206L389.872 204.469C392.195 211.947 394.02 219.425 395.181 227.069ZM109.294 204.469C111.617 197.158 114.604 190.013 118.088 183.2L50.3909 148.803C45.0813 159.105 40.6013 170.072 36.951 181.206L109.294 204.469ZM381.078 183.366L448.941 148.969C443.631 138.5 437.492 128.53 430.523 119.058L368.965 163.758C373.445 169.906 377.594 176.553 381.078 183.366ZM130.2 163.592C134.68 157.443 139.824 151.461 145.3 145.978L145.465 145.811L91.706 92.1386L91.5401 92.3048C83.2439 100.613 75.6114 109.42 68.8085 118.892L130.2 163.592ZM354.032 146.31L370.293 129.859L407.626 92.6371L407.46 92.4709C399.164 84.3286 390.37 76.6848 381.078 69.8718L336.278 131.189C342.418 135.675 348.391 140.66 353.7 146.144L354.032 146.31ZM163.053 130.856C169.193 126.37 175.83 122.382 182.798 118.892L148.286 51.2608C137.833 56.5782 127.877 62.7265 118.42 69.5395L163.053 130.856ZM316.699 119.058L351.377 51.427C340.924 46.1095 330.139 41.6229 319.022 37.9672L295.461 110.085C302.596 112.577 309.73 115.569 316.699 119.058ZM204.203 110.085C211.503 107.759 219.136 105.931 226.768 104.768L214.988 29.8249C203.539 31.6528 191.924 34.3115 180.807 37.9672L204.203 110.085ZM272.729 104.768L284.676 29.8249C273.227 27.997 261.447 27 249.832 27V102.94C257.464 102.94 265.263 103.604 272.729 104.768Z" fill="#060012"/>
<path d="M249.417 400V324.054C242.942 324.054 236.633 323.227 230.324 321.572L210.402 394.871C223.185 398.18 236.301 400 249.417 400ZM288.432 394.871C301.216 391.562 313.336 386.598 324.792 379.979L286.274 314.292C280.795 317.436 274.819 319.918 268.676 321.572L288.432 394.871ZM174.208 379.979L212.726 314.292C207.247 311.148 202.1 307.177 197.452 302.71L196.788 302.048L172.548 327.363L142.664 355.988L143.162 356.484C152.459 365.584 162.919 373.526 174.208 379.979ZM355.838 356.484C365.135 347.218 373.27 336.96 379.745 325.709L313.17 287.653C310.015 293.113 306.031 298.077 301.382 302.71L355.838 356.484ZM119.089 325.543L185.664 287.653C182.51 282.193 180.019 276.402 178.359 270.28L104.147 289.804C107.467 302.213 112.614 314.292 119.089 325.543ZM394.853 289.969C398.174 277.394 400 264.489 400 251.583H323.131C323.131 257.87 322.301 264.323 320.641 270.445L394.853 289.969ZM176.035 251.417C176.035 245.13 176.865 238.677 178.525 232.555L104.147 213.031C100.826 225.606 99 238.511 99 251.417H176.035ZM320.475 232.72L394.853 213.196C391.533 200.621 386.386 188.543 379.911 177.291L313.336 215.182C316.324 220.807 318.815 226.598 320.475 232.72ZM185.83 215.182C188.985 209.887 192.803 204.758 197.452 200.29L197.618 200.125L170.058 172.989L143.66 146.019L143.162 146.516C133.865 155.616 125.896 166.04 119.255 177.126L185.83 215.182ZM301.382 200.29L328.61 173.32L356.502 147.178L355.838 146.516C346.541 137.25 336.081 129.474 324.792 122.855L286.274 188.543C291.753 191.686 296.734 195.492 301.382 199.959V200.29ZM212.726 188.543C218.205 185.399 224.181 182.917 230.324 181.262L210.734 107.964C197.95 111.273 185.83 116.237 174.375 122.855L212.726 188.543ZM268.51 181.428L288.432 108.129C275.815 104.82 262.699 103 249.583 103V178.946C255.892 178.946 262.367 179.773 268.51 181.428Z" fill="#060012"/>
</svg>
